<svg t="1691661754405" class="icon" viewBox="0 0 1024 1024" version="1.1"
    xmlns="http://www.w3.org/2000/svg" p-id="28746" width="32" height="32">
    <path
        d="M513.702932 89.427748a444.46514 444.46514 0 0 0-323.556999 751.418556l-110.690552 110.690552a42.573289 42.573289 0 0 0 0 60.028338 42.573289 42.573289 0 0 0 60.028338 0l114.947881-114.947881a442.336475 442.336475 0 0 0 519.394129-3.405863l108.561887 117.076545a42.573289 42.573289 0 0 0 60.028338 2.554397 42.573289 42.573289 0 0 0 2.554398-60.45407l-107.710422-115.799347a440.633544 440.633544 0 0 0 119.630943-302.270354A445.316606 445.316606 0 0 0 513.702932 89.427748zM152.255706 534.318621A359.744294 359.744294 0 1 1 513.702932 894.062915a360.170027 360.170027 0 0 1-361.447226-359.744294zM988.82084 146.901689L854.289246 12.370095a42.573289 42.573289 0 0 0-60.028338 60.028338l134.105861 134.105861a42.573289 42.573289 0 0 0 60.028338 0 42.573289 42.573289 0 0 0 0.425733-59.602605zM228.887626 72.824166A42.573289 42.573289 0 1 0 168.859289 12.370095L34.753427 146.475956a42.573289 42.573289 0 0 0 0 60.028338 42.573289 42.573289 0 0 0 60.028338 0z"
        fill="#3B11D7" p-id="28747"></path>
    <path
        d="M703.579802 638.62318h-212.866447a42.573289 42.573289 0 0 1-42.573289-42.573289V383.183444a42.573289 42.573289 0 0 1 85.146579 0v170.293157h170.293157a42.573289 42.573289 0 0 1 0 85.146579z"
        fill="#F34E79" p-id="28748"></path>
</svg>