<svg t="1690383259469" class="icon" viewBox="0 0 1024 1024" version="1.1"
    xmlns="http://www.w3.org/2000/svg" p-id="19203" width="200" height="200">
    <path
        d="M907.264 355.328c19.456-0.512 34.816-16.384 34.304-35.328l-3.072-189.44c0-71.68-56.32-130.56-124.928-130.56H203.776C134.656 0 78.848 58.368 78.848 130.56v762.88c0 71.68 56.32 130.56 124.928 130.56h158.208c19.968 0 35.84-16.384 35.328-35.84-0.512-18.944-15.872-34.304-35.328-34.304H203.776c-31.744 0-57.856-27.136-57.856-60.416v-762.88c0-33.28 26.112-60.416 57.856-60.416h609.792c31.744 0 57.856 27.136 57.856 60.416v189.952c0 19.456 15.872 35.328 35.84 34.816zM732.16 260.608H256.512c-16.384 3.584-28.16 18.432-28.16 35.328 0 16.896 11.264 31.232 27.648 34.816h475.648c16.384-3.584 28.16-18.432 28.16-35.328 0.512-16.384-11.264-31.232-27.648-34.816z m-200.192 226.816H257.024c-16.896 2.048-29.184 16.896-28.16 33.792-1.536 17.408 10.752 33.28 27.648 34.816h275.456c17.408-2.048 29.696-17.92 28.16-35.328 0.512-16.384-11.264-30.72-28.16-33.28z"
        fill="#333333" p-id="19204"></path>
    <path
        d="M951.296 771.072c-7.168 0-14.336 1.536-20.992 3.584l-94.72-136.704c7.68-11.264 11.264-24.064 11.264-37.376 0-38.912-32.768-70.144-72.704-70.144-40.448 0-72.704 31.232-72.704 70.144 0 17.92 7.168 33.792 18.432 46.08L624.64 815.104c-8.704-2.56-17.92-3.584-27.136-4.096-20.48 0-39.936 6.144-56.32 15.872l-76.288-88.064c4.608-8.192 7.68-17.92 7.68-28.16 0-33.28-28.16-60.416-62.464-60.416s-62.464 27.136-62.464 60.416c0 33.28 28.16 60.416 62.464 60.416 8.192 0 16.384-1.536 24.064-4.608l76.8 89.088c-11.776 16.384-17.92 36.352-17.92 56.32 0 55.296 46.592 100.352 103.936 100.352S701.44 966.656 701.44 911.36c0-31.744-15.872-59.904-39.936-78.336l93.696-165.376c6.144 1.536 12.288 2.56 19.456 2.56 10.752 0 20.48-2.048 29.696-6.144l94.208 135.68c-6.144 9.216-9.216 19.968-9.216 30.72 0 33.28 28.16 60.416 62.464 60.416 34.304 0 62.464-27.136 62.464-60.416-0.512-32.256-28.672-59.392-62.976-59.392z m-354.304 200.704c-34.304 0-62.464-27.136-62.464-60.416 0-33.28 28.16-60.416 62.464-60.416s62.464 27.136 62.464 60.416c0 33.28-27.648 60.416-62.464 60.416z"
        fill="#333333" p-id="19205"></path>
</svg>