<svg t="1691661810984" class="icon" viewBox="0 0 1024 1024" version="1.1"
    xmlns="http://www.w3.org/2000/svg" p-id="31494" width="32" height="32">
    <path
        d="M512 412.242581c-54.833548 0-99.757419 44.263226-99.757419 99.757419 0 54.833548 44.263226 99.757419 99.757419 99.757419 54.833548 0 99.757419-44.263226 99.757419-99.757419 0-54.833548-44.923871-99.757419-99.757419-99.757419z m0 142.699354c-23.783226 0-42.941935-19.15871-42.941935-42.941935s19.15871-42.941935 42.941935-42.941935 42.941935 19.15871 42.941935 42.941935-19.15871 42.941935-42.941935 42.941935z"
        fill="#FE9B26" p-id="31495"></path>
    <path
        d="M512 284.738065c-125.522581 0-227.261935 101.739355-227.261935 227.261935s101.739355 227.261935 227.261935 227.261935 227.261935-101.739355 227.261935-227.261935-101.739355-227.261935-227.261935-227.261935z m0 397.708387c-94.472258 0-170.446452-76.634839-170.446452-170.446452 0-94.472258 76.634839-170.446452 170.446452-170.446452 94.472258 0 170.446452 76.634839 170.446452 170.446452 0 94.472258-75.974194 170.446452-170.446452 170.446452z"
        fill="#118DDE" p-id="31496"></path>
    <path
        d="M910.369032 412.242581h-56.815484c-7.267097-25.104516-17.176774-48.887742-29.729032-71.349678l40.299355-40.299355c11.230968-11.230968 16.516129-25.765161 16.516129-40.299354 0-14.534194-5.285161-29.068387-16.516129-40.299355l-60.11871-60.11871c-11.230968-11.230968-25.765161-16.516129-40.299355-16.516129-14.534194 0-29.068387 5.285161-40.299354 16.516129l-40.299355 40.299355c-22.461935-12.552258-46.245161-22.461935-71.349678-29.729032v-56.815484c0-31.710968-25.765161-56.815484-56.815484-56.815484H469.058065c-31.710968 0-56.815484 25.765161-56.815484 56.815484v56.815484c-25.104516 7.267097-48.887742 17.176774-71.349678 29.729032l-40.299355-40.299355c-11.230968-11.230968-25.765161-16.516129-40.299354-16.516129-14.534194 0-29.068387 5.285161-40.299355 16.516129l-60.11871 60.11871c-11.230968 11.230968-16.516129 25.765161-16.516129 40.299355 0 14.534194 5.285161 29.068387 16.516129 40.299354l40.299355 40.299355c-12.552258 22.461935-22.461935 46.245161-29.729032 71.349678h-56.815484c-31.710968 0-56.815484 25.765161-56.815484 56.815484v85.88387c0 31.710968 25.765161 56.815484 56.815484 56.815484h56.815484c7.267097 25.104516 17.176774 48.887742 29.729032 71.349678l-40.299355 40.299355c-11.230968 11.230968-16.516129 25.765161-16.516129 40.299354 0 14.534194 5.285161 29.068387 16.516129 40.299355l60.11871 60.11871c11.230968 11.230968 25.765161 16.516129 40.299355 16.516129 14.534194 0 29.068387-5.285161 40.299354-16.516129l40.299355-40.299355c22.461935 12.552258 46.245161 22.461935 71.349678 29.729032v56.815484c0 31.710968 25.765161 56.815484 56.815484 56.815484h85.88387c31.710968 0 56.815484-25.765161 56.815484-56.815484v-56.815484c25.104516-7.267097 48.887742-17.176774 71.349678-29.729032l40.299355 40.299355c11.230968 11.230968 25.765161 16.516129 40.299354 16.516129 14.534194 0 29.068387-5.285161 40.299355-16.516129l60.11871-60.11871c11.230968-11.230968 16.516129-25.765161 16.516129-40.299355 0-14.534194-5.285161-29.068387-16.516129-40.299354l-40.299355-40.299355c12.552258-22.461935 22.461935-46.245161 29.729032-71.349678h56.815484c31.710968 0 56.815484-25.765161 56.815484-56.815484V469.058065c0-31.050323-25.765161-56.815484-56.815484-56.815484z m0 142.699354h-78.616774c-13.212903 0-25.104516 9.249032-27.747097 22.461936-7.927742 34.353548-21.140645 66.725161-39.638709 95.132903-7.267097 11.230968-5.285161 25.765161 3.963871 35.674839l55.494193 55.494193-60.11871 60.11871-55.494193-55.494193c-9.249032-9.249032-24.443871-11.230968-35.674839-3.963871-29.068387 18.498065-60.779355 31.710968-95.132903 39.638709-13.212903 2.642581-22.461935 14.534194-22.461936 27.747097v78.616774H469.058065v-78.616774c0-13.212903-9.249032-25.104516-22.461936-27.747097-34.353548-7.927742-66.725161-21.140645-95.132903-39.638709-11.230968-7.267097-25.765161-5.285161-35.674839 3.963871l-55.494193 55.494193-60.11871-60.11871 55.494193-55.494193c9.249032-9.249032 11.230968-24.443871 3.963871-35.674839-18.498065-29.068387-31.710968-60.779355-39.638709-95.132903-2.642581-13.212903-14.534194-22.461935-27.747097-22.461936H113.630968V469.058065h78.616774c13.212903 0 25.104516-9.249032 27.747097-22.461936 7.927742-34.353548 21.140645-66.725161 39.638709-95.132903 7.267097-11.230968 5.285161-25.765161-3.963871-35.674839l-55.494193-55.494193 60.11871-60.11871 55.494193 55.494193c9.249032 9.249032 24.443871 11.230968 35.674839 3.963871 29.068387-18.498065 60.779355-31.710968 95.132903-39.638709 13.212903-2.642581 22.461935-14.534194 22.461936-27.747097V113.630968h85.88387v78.616774c0 13.212903 9.249032 25.104516 22.461936 27.747097 34.353548 7.927742 66.725161 21.140645 95.132903 39.638709 11.230968 7.267097 25.765161 5.285161 35.674839-3.963871l55.494193-55.494193 60.11871 60.11871-55.494193 55.494193c-9.249032 9.249032-11.230968 24.443871-3.963871 35.674839 18.498065 29.068387 31.710968 60.779355 39.638709 95.132903 2.642581 13.212903 14.534194 22.461935 27.747097 22.461936h78.616774v85.88387z"
        fill="#118DDE" p-id="31497"></path>
</svg>