<svg t="1691661489967" class="icon" viewBox="0 0 1024 1024" version="1.1"
    xmlns="http://www.w3.org/2000/svg" p-id="12602" width="32" height="32">
    <path
        d="M672 64a32 32 0 0 1 32 32V128h176a16 16 0 0 1 15.552 12.352L896 144v800a16 16 0 0 1-16 16H144a16 16 0 0 1-16-16V144A16 16 0 0 1 144 128H320v-32a32 32 0 0 1 64 0V128h256v-32a32 32 0 0 1 32-32zM320 192H192v704h640V192h-128v32a32 32 0 1 1-64 0V192H384v32a32 32 0 0 1-64 0V192z m352 512a32 32 0 1 1 0 64h-256a32 32 0 1 1 0-64h256z m-384 0a32 32 0 1 1 0 64 32 32 0 0 1 0-64z m384-192a32 32 0 1 1 0 64h-256a32 32 0 0 1 0-64h256z m-384 0a32 32 0 1 1 0 64 32 32 0 0 1 0-64z m384-192a32 32 0 1 1 0 64h-256a32 32 0 0 1 0-64h256z m-384 0a32 32 0 1 1 0 64 32 32 0 0 1 0-64z"
        fill="#666666" p-id="12603"></path>
</svg>